<?xml version="1.0" encoding="UTF-8" standalone="no"?><!DOCTYPE svg PUBLIC "-//W3C//DTD SVG 1.1//EN" "http://www.w3.org/Graphics/SVG/1.1/DTD/svg11.dtd"><svg width="100%" height="100%" viewBox="0 0 1518 540" version="1.1" xmlns="http://www.w3.org/2000/svg" xmlns:xlink="http://www.w3.org/1999/xlink" xml:space="preserve" xmlns:serif="http://www.serif.com/" style="fill-rule:evenodd;clip-rule:evenodd;stroke-linejoin:round;stroke-miterlimit:2;"><g id="LOGO-PITMA-30" serif:id="LOGO PITMA 30"><g><path d="M1151.02,468.571c-0.703,-0.856 -1.566,-1.513 -2.59,-1.971c-1.023,-0.458 -2.207,-0.688 -3.552,-0.688c-1.344,0 -2.589,0.26 -3.735,0.78c-1.146,0.519 -2.139,1.245 -2.979,2.177c-0.84,0.932 -1.497,2.039 -1.971,3.323c-0.474,1.283 -0.71,2.673 -0.71,4.17c-0,1.528 0.236,2.926 0.71,4.194c0.474,1.268 1.123,2.368 1.948,3.3c0.825,0.932 1.795,1.658 2.91,2.177c1.116,0.52 2.315,0.779 3.598,0.779c1.467,0 2.766,-0.305 3.896,-0.916c1.131,-0.611 2.063,-1.467 2.796,-2.567l5.958,4.446c-1.375,1.925 -3.116,3.346 -5.225,4.262c-2.108,0.917 -4.278,1.375 -6.508,1.375c-2.536,0 -4.874,-0.397 -7.013,-1.191c-2.138,-0.795 -3.987,-1.933 -5.545,-3.415c-1.559,-1.482 -2.773,-3.277 -3.644,-5.385c-0.871,-2.109 -1.306,-4.461 -1.306,-7.059c-0,-2.597 0.435,-4.95 1.306,-7.058c0.871,-2.108 2.085,-3.903 3.644,-5.385c1.558,-1.482 3.407,-2.621 5.545,-3.415c2.139,-0.794 4.477,-1.192 7.013,-1.192c0.917,0 1.871,0.084 2.864,0.252c0.994,0.168 1.971,0.436 2.934,0.803c0.962,0.366 1.887,0.855 2.773,1.466c0.886,0.611 1.68,1.36 2.383,2.246l-5.5,4.492Z" style="fill:#595756;fill-rule:nonzero;"/><path d="M1160.6,476.362c0,-2.597 0.436,-4.95 1.306,-7.058c0.871,-2.108 2.086,-3.903 3.644,-5.385c1.559,-1.482 3.407,-2.621 5.546,-3.415c2.139,-0.794 4.476,-1.192 7.013,-1.192c2.536,0 4.873,0.398 7.012,1.192c2.139,0.794 3.988,1.933 5.546,3.415c1.558,1.482 2.773,3.277 3.644,5.385c0.87,2.108 1.306,4.461 1.306,7.058c-0,2.598 -0.436,4.95 -1.306,7.059c-0.871,2.108 -2.086,3.903 -3.644,5.385c-1.558,1.482 -3.407,2.62 -5.546,3.415c-2.139,0.794 -4.476,1.191 -7.012,1.191c-2.537,0 -4.874,-0.397 -7.013,-1.191c-2.139,-0.795 -3.987,-1.933 -5.546,-3.415c-1.558,-1.482 -2.773,-3.277 -3.644,-5.385c-0.87,-2.109 -1.306,-4.461 -1.306,-7.059Zm7.425,0c0,1.528 0.237,2.926 0.711,4.194c0.473,1.268 1.153,2.368 2.039,3.3c0.886,0.932 1.948,1.658 3.186,2.177c1.237,0.52 2.62,0.779 4.148,0.779c1.527,0 2.91,-0.259 4.147,-0.779c1.238,-0.519 2.3,-1.245 3.186,-2.177c0.886,-0.932 1.566,-2.032 2.039,-3.3c0.474,-1.268 0.711,-2.666 0.711,-4.194c-0,-1.497 -0.237,-2.887 -0.711,-4.17c-0.473,-1.284 -1.153,-2.391 -2.039,-3.323c-0.886,-0.932 -1.948,-1.658 -3.186,-2.177c-1.237,-0.52 -2.62,-0.78 -4.147,-0.78c-1.528,0 -2.911,0.26 -4.148,0.78c-1.238,0.519 -2.3,1.245 -3.186,2.177c-0.886,0.932 -1.566,2.039 -2.039,3.323c-0.474,1.283 -0.711,2.673 -0.711,4.17Z" style="fill:#595756;fill-rule:nonzero;"/><path d="M1201.62,460.137l10.817,0l7.471,21.175l0.091,0l7.517,-21.175l10.771,0l-0,32.45l-7.15,0l-0,-24.887l-0.092,-0l-8.525,24.887l-5.454,0l-8.204,-24.887l-0.092,-0l0,24.887l-7.15,0l0,-32.45Z" style="fill:#595756;fill-rule:nonzero;"/><path d="M1246.03,460.137l12.054,0c1.68,0 3.269,0.153 4.766,0.459c1.498,0.305 2.804,0.832 3.919,1.581c1.115,0.749 2.002,1.757 2.658,3.025c0.657,1.268 0.986,2.865 0.986,4.79c-0,1.894 -0.306,3.483 -0.917,4.766c-0.611,1.284 -1.451,2.307 -2.521,3.071c-1.069,0.764 -2.337,1.306 -3.804,1.627c-1.466,0.321 -3.055,0.481 -4.766,0.481l-5.225,0l-0,12.65l-7.15,0l-0,-32.45Zm7.15,13.75l4.766,0c0.642,0 1.261,-0.061 1.856,-0.183c0.596,-0.122 1.131,-0.328 1.605,-0.619c0.473,-0.29 0.855,-0.687 1.145,-1.191c0.291,-0.505 0.436,-1.139 0.436,-1.902c-0,-0.825 -0.191,-1.49 -0.573,-1.994c-0.382,-0.504 -0.871,-0.894 -1.467,-1.169c-0.596,-0.275 -1.26,-0.451 -1.993,-0.527c-0.734,-0.076 -1.437,-0.115 -2.109,-0.115l-3.666,0l-0,7.7Z" style="fill:#595756;fill-rule:nonzero;"/><path d="M1276.05,460.137l12.559,0c1.65,0 3.216,0.161 4.698,0.482c1.482,0.32 2.78,0.855 3.895,1.604c1.116,0.748 2.002,1.757 2.659,3.025c0.657,1.268 0.985,2.849 0.985,4.744c0,2.291 -0.596,4.239 -1.787,5.843c-1.192,1.604 -2.934,2.62 -5.225,3.048l8.25,13.704l-8.571,0l-6.783,-12.97l-3.53,-0l0,12.97l-7.15,0l0,-32.45Zm7.15,13.43l4.217,-0c0.642,-0 1.322,-0.023 2.04,-0.069c0.718,-0.046 1.367,-0.184 1.948,-0.413c0.58,-0.229 1.061,-0.588 1.443,-1.077c0.382,-0.489 0.573,-1.176 0.573,-2.062c0,-0.825 -0.168,-1.482 -0.504,-1.971c-0.336,-0.489 -0.764,-0.863 -1.283,-1.123c-0.52,-0.26 -1.116,-0.435 -1.788,-0.527c-0.672,-0.092 -1.329,-0.138 -1.971,-0.138l-4.675,0l0,7.38Z" style="fill:#595756;fill-rule:nonzero;"/><path d="M1305.16,476.362c-0,-2.597 0.435,-4.95 1.306,-7.058c0.871,-2.108 2.085,-3.903 3.644,-5.385c1.558,-1.482 3.407,-2.621 5.545,-3.415c2.139,-0.794 4.477,-1.192 7.013,-1.192c2.536,0 4.874,0.398 7.012,1.192c2.139,0.794 3.988,1.933 5.546,3.415c1.559,1.482 2.773,3.277 3.644,5.385c0.871,2.108 1.306,4.461 1.306,7.058c0,2.598 -0.435,4.95 -1.306,7.059c-0.871,2.108 -2.085,3.903 -3.644,5.385c-1.558,1.482 -3.407,2.62 -5.546,3.415c-2.138,0.794 -4.476,1.191 -7.012,1.191c-2.536,0 -4.874,-0.397 -7.013,-1.191c-2.138,-0.795 -3.987,-1.933 -5.545,-3.415c-1.559,-1.482 -2.773,-3.277 -3.644,-5.385c-0.871,-2.109 -1.306,-4.461 -1.306,-7.059Zm7.425,0c-0,1.528 0.236,2.926 0.71,4.194c0.474,1.268 1.153,2.368 2.04,3.3c0.886,0.932 1.947,1.658 3.185,2.177c1.237,0.52 2.62,0.779 4.148,0.779c1.528,0 2.91,-0.259 4.148,-0.779c1.237,-0.519 2.299,-1.245 3.185,-2.177c0.886,-0.932 1.566,-2.032 2.04,-3.3c0.473,-1.268 0.71,-2.666 0.71,-4.194c0,-1.497 -0.237,-2.887 -0.71,-4.17c-0.474,-1.284 -1.154,-2.391 -2.04,-3.323c-0.886,-0.932 -1.948,-1.658 -3.185,-2.177c-1.238,-0.52 -2.62,-0.78 -4.148,-0.78c-1.528,0 -2.911,0.26 -4.148,0.78c-1.238,0.519 -2.299,1.245 -3.185,2.177c-0.887,0.932 -1.566,2.039 -2.04,3.323c-0.474,1.283 -0.71,2.673 -0.71,4.17Z" style="fill:#595756;fill-rule:nonzero;"/><path d="M1346.18,460.137l10.817,0l7.471,21.175l0.092,0l7.516,-21.175l10.771,0l0,32.45l-7.15,0l0,-24.887l-0.092,-0l-8.525,24.887l-5.454,0l-8.204,-24.887l-0.092,-0l0,24.887l-7.15,0l0,-32.45Z" style="fill:#595756;fill-rule:nonzero;"/><rect x="1390.5" y="460.137" width="7.15" height="32.45" style="fill:#595756;fill-rule:nonzero;"/><path d="M1421.35,468.067c-0.58,-0.734 -1.367,-1.276 -2.36,-1.628c-0.993,-0.351 -1.933,-0.527 -2.819,-0.527c-0.52,0 -1.054,0.061 -1.604,0.184c-0.55,0.122 -1.07,0.313 -1.559,0.573c-0.488,0.259 -0.886,0.603 -1.191,1.031c-0.306,0.428 -0.459,0.947 -0.459,1.558c0,0.978 0.367,1.727 1.1,2.246c0.734,0.519 1.658,0.963 2.773,1.329c1.116,0.367 2.315,0.734 3.598,1.1c1.284,0.367 2.483,0.886 3.598,1.559c1.115,0.672 2.04,1.573 2.773,2.704c0.733,1.13 1.1,2.643 1.1,4.537c0,1.803 -0.336,3.377 -1.008,4.721c-0.672,1.344 -1.582,2.46 -2.727,3.346c-1.146,0.886 -2.475,1.543 -3.988,1.971c-1.512,0.427 -3.109,0.641 -4.789,0.641c-2.109,0 -4.064,-0.32 -5.867,-0.962c-1.803,-0.642 -3.483,-1.681 -5.042,-3.117l5.088,-5.591c0.733,0.977 1.657,1.734 2.773,2.268c1.115,0.535 2.268,0.802 3.46,0.802c0.581,0 1.169,-0.068 1.765,-0.206c0.595,-0.137 1.13,-0.344 1.604,-0.619c0.473,-0.275 0.855,-0.626 1.146,-1.054c0.29,-0.428 0.435,-0.932 0.435,-1.512c0,-0.978 -0.374,-1.75 -1.123,-2.315c-0.748,-0.565 -1.688,-1.046 -2.819,-1.444c-1.13,-0.397 -2.352,-0.794 -3.666,-1.191c-1.314,-0.398 -2.536,-0.932 -3.667,-1.604c-1.13,-0.673 -2.07,-1.559 -2.819,-2.659c-0.748,-1.1 -1.123,-2.551 -1.123,-4.354c0,-1.742 0.344,-3.269 1.032,-4.583c0.687,-1.314 1.604,-2.414 2.75,-3.3c1.145,-0.886 2.467,-1.551 3.964,-1.994c1.497,-0.443 3.041,-0.665 4.629,-0.665c1.834,0 3.606,0.26 5.317,0.78c1.711,0.519 3.254,1.39 4.629,2.612l-4.904,5.363Z" style="fill:#595756;fill-rule:nonzero;"/><path d="M1431.02,476.362c-0,-2.597 0.435,-4.95 1.306,-7.058c0.871,-2.108 2.086,-3.903 3.644,-5.385c1.558,-1.482 3.407,-2.621 5.546,-3.415c2.139,-0.794 4.476,-1.192 7.012,-1.192c2.536,0 4.874,0.398 7.013,1.192c2.139,0.794 3.987,1.933 5.546,3.415c1.558,1.482 2.772,3.277 3.643,5.385c0.871,2.108 1.307,4.461 1.307,7.058c-0,2.598 -0.436,4.95 -1.307,7.059c-0.871,2.108 -2.085,3.903 -3.643,5.385c-1.559,1.482 -3.407,2.62 -5.546,3.415c-2.139,0.794 -4.477,1.191 -7.013,1.191c-2.536,0 -4.873,-0.397 -7.012,-1.191c-2.139,-0.795 -3.988,-1.933 -5.546,-3.415c-1.558,-1.482 -2.773,-3.277 -3.644,-5.385c-0.871,-2.109 -1.306,-4.461 -1.306,-7.059Zm7.425,0c-0,1.528 0.237,2.926 0.71,4.194c0.474,1.268 1.154,2.368 2.04,3.3c0.886,0.932 1.948,1.658 3.185,2.177c1.238,0.52 2.62,0.779 4.148,0.779c1.528,0 2.911,-0.259 4.148,-0.779c1.238,-0.519 2.299,-1.245 3.186,-2.177c0.886,-0.932 1.566,-2.032 2.039,-3.3c0.474,-1.268 0.711,-2.666 0.711,-4.194c-0,-1.497 -0.237,-2.887 -0.711,-4.17c-0.473,-1.284 -1.153,-2.391 -2.039,-3.323c-0.887,-0.932 -1.948,-1.658 -3.186,-2.177c-1.237,-0.52 -2.62,-0.78 -4.148,-0.78c-1.528,0 -2.91,0.26 -4.148,0.78c-1.237,0.519 -2.299,1.245 -3.185,2.177c-0.886,0.932 -1.566,2.039 -2.04,3.323c-0.473,1.283 -0.71,2.673 -0.71,4.17Z" style="fill:#595756;fill-rule:nonzero;"/><path d="M1134.04,505.971l22.046,-0l-0,6.6l-14.896,-0l-0,6.05l14.071,-0l-0,6.6l-14.071,-0l-0,6.6l15.721,-0l-0,6.6l-22.871,-0l-0,-32.45Z" style="fill:#595756;fill-rule:nonzero;"/><path d="M1163.79,505.971l10.816,-0l7.471,21.175l0.092,-0l7.516,-21.175l10.771,-0l0,32.45l-7.15,-0l0,-24.888l-0.091,0l-8.525,24.888l-5.455,-0l-8.204,-24.888l-0.091,0l-0,24.888l-7.15,-0l-0,-32.45Z" style="fill:#595756;fill-rule:nonzero;"/><path d="M1208.2,505.971l12.054,-0c1.681,-0 3.27,0.152 4.767,0.458c1.497,0.306 2.803,0.833 3.919,1.581c1.115,0.749 2.001,1.757 2.658,3.025c0.657,1.268 0.985,2.865 0.985,4.79c0,1.894 -0.305,3.483 -0.916,4.767c-0.611,1.283 -1.452,2.306 -2.521,3.07c-1.069,0.764 -2.338,1.307 -3.804,1.627c-1.467,0.321 -3.056,0.482 -4.767,0.482l-5.225,-0l0,12.65l-7.15,-0l0,-32.45Zm7.15,13.75l4.767,-0c0.641,-0 1.26,-0.061 1.856,-0.184c0.596,-0.122 1.131,-0.328 1.604,-0.618c0.474,-0.291 0.856,-0.688 1.146,-1.192c0.29,-0.504 0.435,-1.138 0.435,-1.902c0,-0.825 -0.19,-1.49 -0.572,-1.994c-0.382,-0.504 -0.871,-0.894 -1.467,-1.169c-0.596,-0.275 -1.261,-0.45 -1.994,-0.527c-0.733,-0.076 -1.436,-0.114 -2.108,-0.114l-3.667,-0l0,7.7Z" style="fill:#595756;fill-rule:nonzero;"/><path d="M1238.22,505.971l12.558,-0c1.65,-0 3.216,0.16 4.698,0.481c1.482,0.321 2.781,0.855 3.896,1.604c1.115,0.749 2.001,1.757 2.658,3.025c0.657,1.268 0.986,2.849 0.986,4.744c-0,2.292 -0.596,4.239 -1.788,5.844c-1.191,1.604 -2.933,2.62 -5.225,3.048l8.25,13.704l-8.571,-0l-6.783,-12.971l-3.529,-0l-0,12.971l-7.15,-0l-0,-32.45Zm7.15,13.429l4.217,-0c0.641,-0 1.321,-0.023 2.039,-0.069c0.718,-0.046 1.368,-0.183 1.948,-0.412c0.581,-0.23 1.062,-0.589 1.444,-1.077c0.382,-0.489 0.573,-1.177 0.573,-2.063c-0,-0.825 -0.168,-1.482 -0.504,-1.971c-0.336,-0.489 -0.764,-0.863 -1.284,-1.123c-0.519,-0.259 -1.115,-0.435 -1.787,-0.527c-0.672,-0.091 -1.329,-0.137 -1.971,-0.137l-4.675,-0l-0,7.379Z" style="fill:#595756;fill-rule:nonzero;"/><path d="M1269.34,505.971l22.046,-0l-0,6.6l-14.896,-0l-0,6.05l14.071,-0l-0,6.6l-14.071,-0l-0,6.6l15.721,-0l-0,6.6l-22.871,-0l-0,-32.45Z" style="fill:#595756;fill-rule:nonzero;"/><path d="M1315.13,513.9c-0.58,-0.733 -1.367,-1.276 -2.36,-1.627c-0.993,-0.352 -1.933,-0.527 -2.819,-0.527c-0.519,-0 -1.054,0.061 -1.604,0.183c-0.55,0.122 -1.069,0.313 -1.558,0.573c-0.489,0.26 -0.886,0.603 -1.192,1.031c-0.306,0.428 -0.458,0.947 -0.458,1.559c-0,0.977 0.366,1.726 1.1,2.245c0.733,0.52 1.657,0.963 2.773,1.33c1.115,0.366 2.314,0.733 3.597,1.1c1.284,0.366 2.483,0.886 3.598,1.558c1.116,0.672 2.04,1.573 2.773,2.704c0.734,1.131 1.1,2.643 1.1,4.538c0,1.802 -0.336,3.376 -1.008,4.72c-0.672,1.345 -1.581,2.46 -2.727,3.346c-1.146,0.886 -2.475,1.543 -3.988,1.971c-1.512,0.428 -3.109,0.642 -4.789,0.642c-2.109,-0 -4.064,-0.321 -5.867,-0.963c-1.803,-0.641 -3.483,-1.68 -5.042,-3.116l5.088,-5.592c0.733,0.978 1.658,1.734 2.773,2.269c1.115,0.534 2.269,0.802 3.46,0.802c0.581,-0 1.169,-0.069 1.765,-0.207c0.596,-0.137 1.13,-0.343 1.604,-0.618c0.474,-0.275 0.856,-0.627 1.146,-1.054c0.29,-0.428 0.435,-0.932 0.435,-1.513c0,-0.978 -0.374,-1.749 -1.123,-2.315c-0.748,-0.565 -1.688,-1.046 -2.818,-1.443c-1.131,-0.398 -2.353,-0.795 -3.667,-1.192c-1.314,-0.397 -2.536,-0.932 -3.667,-1.604c-1.13,-0.672 -2.07,-1.558 -2.818,-2.658c-0.749,-1.1 -1.123,-2.552 -1.123,-4.355c-0,-1.741 0.343,-3.269 1.031,-4.583c0.687,-1.314 1.604,-2.414 2.75,-3.3c1.146,-0.886 2.467,-1.551 3.964,-1.994c1.498,-0.443 3.041,-0.664 4.63,-0.664c1.833,-0 3.605,0.259 5.316,0.779c1.711,0.519 3.254,1.39 4.629,2.612l-4.904,5.363Z" style="fill:#595756;fill-rule:nonzero;"/><path d="M1337.22,505.971l5.912,-0l14.117,32.45l-8.067,-0l-2.795,-6.875l-12.605,-0l-2.704,6.875l-7.883,-0l14.025,-32.45Zm2.75,9.441l-3.942,10.084l7.929,-0l-3.987,-10.084Z" style="fill:#595756;fill-rule:nonzero;"/><path d="M1361.65,505.971l12.558,-0c1.65,-0 3.216,0.16 4.698,0.481c1.482,0.321 2.781,0.855 3.896,1.604c1.116,0.749 2.002,1.757 2.659,3.025c0.657,1.268 0.985,2.849 0.985,4.744c-0,2.292 -0.596,4.239 -1.788,5.844c-1.191,1.604 -2.933,2.62 -5.225,3.048l8.25,13.704l-8.57,-0l-6.784,-12.971l-3.529,-0l0,12.971l-7.15,-0l0,-32.45Zm7.15,13.429l4.217,-0c0.641,-0 1.321,-0.023 2.039,-0.069c0.718,-0.046 1.368,-0.183 1.948,-0.412c0.581,-0.23 1.062,-0.589 1.444,-1.077c0.382,-0.489 0.573,-1.177 0.573,-2.063c-0,-0.825 -0.168,-1.482 -0.504,-1.971c-0.336,-0.489 -0.764,-0.863 -1.284,-1.123c-0.519,-0.259 -1.115,-0.435 -1.787,-0.527c-0.672,-0.091 -1.329,-0.137 -1.971,-0.137l-4.675,-0l0,7.379Z" style="fill:#595756;fill-rule:nonzero;"/><rect x="1392.4" y="505.971" width="7.15" height="32.45" style="fill:#595756;fill-rule:nonzero;"/><path d="M1417.89,505.971l5.912,-0l14.117,32.45l-8.067,-0l-2.796,-6.875l-12.604,-0l-2.704,6.875l-7.883,-0l14.025,-32.45Zm2.75,9.441l-3.942,10.084l7.929,-0l-3.987,-10.084Z" style="fill:#595756;fill-rule:nonzero;"/><path d="M1442.59,505.971l7.15,-0l-0,25.85l13.246,-0l-0,6.6l-20.396,-0l-0,-32.45Z" style="fill:#595756;fill-rule:nonzero;"/></g><g><path d="M1283.79,364.923c0.187,0.2 11.024,-12.684 13.607,-37.073c1.765,-16.665 1.597,-23.498 -7.526,-38.999c-21.129,-35.901 -25.216,-60.498 -17.836,-89.496c0.265,-1.041 0.676,-2.1 1.324,-3.194c5.512,-9.312 8.272,-20.317 8.272,-33.016c0,-21.022 -8.559,-39.011 -25.67,-53.97c-17.114,-14.952 -37.917,-22.432 -62.406,-22.432c-26.764,-0 -48.501,7.163 -65.204,21.482c-16.707,14.32 -25.546,33.475 -26.521,57.459l46.716,-0c0.645,-11.852 4.783,-21.09 12.407,-27.723c7.621,-6.63 18.005,-9.948 31.144,-9.948c11.677,-0 21.407,3.564 29.193,10.686c7.786,7.129 11.681,16.124 11.681,26.985c-0,12.843 -4.624,22.47 -13.871,28.888c-9.244,6.425 -22.953,9.631 -41.117,9.631c-2.758,-0 -4.907,-0.031 -6.446,-0.106c-1.543,-0.069 -2.882,-0.103 -4.017,-0.103l0,41.69c1.297,0 2.839,-0.031 4.624,-0.105c1.782,-0.069 4.381,-0.106 7.786,-0.106c24.489,-0 43.429,5.259 56.811,15.768c13.382,10.512 20.074,25.293 20.074,44.339c-0,16.93 -6.534,31.147 -19.588,42.647c-13.058,11.5 -29.318,17.248 -48.782,17.248c-18.002,-0 -33.007,-5.465 -45.008,-16.401c-12.008,-10.933 -18.411,-25.081 -19.221,-42.435l-47.931,0c0.81,31.322 11.434,55.91 31.873,73.757c20.436,17.849 48.252,26.773 83.45,26.773c32.44,-0 59.649,-10.017 81.63,-30.054c4.277,-3.901 7.733,-7.967 10.552,-12.192Z" style="fill:#e73743;fill-rule:nonzero;"/><path d="M1517.39,224.08c0,0.012 0,0.024 0,0.037c0,74.279 -60.416,134.585 -134.832,134.585c-74.416,-0 -134.833,-60.306 -134.833,-134.585c0,-74.28 60.416,-134.585 134.832,-134.585l-0,48.653l-0.003,0c-47.407,0 -85.896,38.488 -85.896,85.894c0,47.406 38.489,85.893 85.896,85.893c47.408,0 85.896,-38.487 85.896,-85.893l48.94,0.001Z" style="fill:#e73743;"/><path d="M1453.57,175.569c9.505,13.812 14.88,30.524 14.88,48.511l48.941,-0c0,-3.792 -0.165,-7.546 -0.474,-11.26c-0.131,-1.58 -0.29,-3.153 -0.474,-4.717c-0.113,-0.935 -0.235,-1.867 -0.363,-2.798c-0.134,-0.947 -0.274,-1.895 -0.427,-2.839c-2.272,-14.039 -6.711,-27.355 -12.982,-39.587c-0.009,-0.016 -0.015,-0.034 -0.025,-0.053c-1.86,-3.62 -3.882,-7.144 -6.052,-10.565c-0.727,-1.147 -1.464,-2.287 -2.222,-3.409c-2.098,-3.097 -4.326,-6.097 -6.664,-9.001c-0.649,-0.804 -1.305,-1.601 -1.97,-2.389c-1.538,-1.82 -3.121,-3.599 -4.75,-5.338c-0.362,-0.386 -0.721,-0.772 -1.089,-1.156c-0.656,-0.682 -1.327,-1.349 -1.998,-2.018l-34.565,34.461c3.746,3.739 7.226,7.787 10.234,12.158" style="fill:#e9e9e9;fill-rule:nonzero;"/><path d="M1468.51,120.436c-0.072,-0.059 -0.141,-0.122 -0.212,-0.181c-2.07,-1.704 -4.195,-3.34 -6.362,-4.916c-0.533,-0.39 -1.064,-0.779 -1.601,-1.159c-4.017,-2.836 -8.199,-5.456 -12.522,-7.849c-0.494,-0.274 -0.99,-0.545 -1.486,-0.813c-18.987,-10.198 -40.702,-15.986 -63.771,-15.986l-0,48.654c23.722,-0 45.196,9.668 60.778,25.225l34.524,-34.46c-2.984,-2.979 -6.099,-5.826 -9.348,-8.515" style="fill:#f59c24;fill-rule:nonzero;"/><g><path d="M1430.09,409.583c-3.43,-0 -6.573,-0.595 -9.432,-1.781c-2.862,-1.187 -5.343,-2.831 -7.442,-4.931c-2.1,-2.1 -3.735,-4.603 -4.902,-7.509c-1.163,-2.899 -1.747,-6.041 -1.747,-9.427c0,-3.386 0.584,-6.528 1.747,-9.427c1.167,-2.906 2.802,-5.409 4.902,-7.509c2.099,-2.1 4.58,-3.744 7.442,-4.931c2.859,-1.186 6.002,-1.781 9.432,-1.781c3.43,0 6.574,0.595 9.432,1.781c2.863,1.187 5.343,2.831 7.443,4.931c2.1,2.1 3.734,4.603 4.901,7.509c1.164,2.899 1.748,6.041 1.748,9.427c-0,3.386 -0.584,6.528 -1.748,9.427c-1.167,2.906 -2.801,5.409 -4.901,7.509c-2.1,2.1 -4.58,3.744 -7.443,4.931c-2.858,1.186 -6.002,1.781 -9.432,1.781Zm0,-5.854c2.498,0 4.784,-0.461 6.859,-1.388c2.073,-0.925 3.854,-2.193 5.344,-3.803c1.492,-1.613 2.651,-3.499 3.478,-5.657c0.829,-2.164 1.242,-4.479 1.242,-6.946c0,-2.467 -0.413,-4.782 -1.242,-6.946c-0.827,-2.158 -1.986,-4.044 -3.478,-5.657c-1.49,-1.61 -3.271,-2.878 -5.344,-3.803c-2.075,-0.927 -4.361,-1.388 -6.859,-1.388c-2.497,-0 -4.784,0.461 -6.858,1.388c-2.073,0.925 -3.855,2.193 -5.344,3.803c-1.492,1.613 -2.651,3.499 -3.478,5.657c-0.829,2.164 -1.242,4.479 -1.242,6.946c-0,2.467 0.413,4.782 1.242,6.946c0.827,2.158 1.986,4.044 3.478,5.657c1.489,1.61 3.271,2.878 5.344,3.803c2.074,0.927 4.361,1.388 6.858,1.388Z" style="fill:#9d9c9c;"/><path d="M1480.43,371.948c-0.815,-1.32 -1.902,-2.283 -3.261,-2.885c-1.388,-0.615 -2.834,-0.922 -4.34,-0.922c-1.119,-0 -2.218,0.14 -3.297,0.42c-1.065,0.276 -2.022,0.689 -2.871,1.241c-0.824,0.537 -1.485,1.247 -1.984,2.13c-0.5,0.883 -0.744,1.922 -0.744,3.114c-0,0.924 0.141,1.744 0.43,2.456c0.283,0.7 0.749,1.331 1.392,1.898c0.673,0.594 1.587,1.146 2.736,1.661c1.187,0.532 2.641,1.064 4.361,1.596l0.003,0.001c1.712,0.543 3.371,1.127 4.978,1.753c1.644,0.641 3.096,1.454 4.357,2.436c1.281,0.999 2.303,2.248 3.063,3.746c0.757,1.492 1.143,3.361 1.143,5.609c-0,2.29 -0.459,4.277 -1.367,5.962c-0.907,1.684 -2.106,3.077 -3.596,4.178c-1.479,1.093 -3.182,1.909 -5.11,2.444c-1.91,0.531 -3.884,0.797 -5.921,0.797c-1.315,-0 -2.63,-0.117 -3.945,-0.35c-1.321,-0.235 -2.588,-0.597 -3.802,-1.087c-1.222,-0.493 -2.368,-1.135 -3.44,-1.928c-1.083,-0.802 -2.014,-1.787 -2.794,-2.956c-0.143,-0.214 -0.1,-0.501 0.099,-0.664l4.48,-3.671c0.113,-0.093 0.261,-0.132 0.405,-0.106c0.143,0.025 0.269,0.113 0.343,0.238c0.903,1.532 2.16,2.691 3.771,3.476c1.632,0.796 3.363,1.194 5.194,1.194c1.074,0 2.158,-0.16 3.252,-0.478c1.085,-0.316 2.063,-0.779 2.931,-1.391c0.856,-0.603 1.557,-1.352 2.101,-2.247c0.535,-0.878 0.799,-1.892 0.799,-3.038c-0,-1.27 -0.202,-2.303 -0.625,-3.092c-0.42,-0.782 -1.072,-1.455 -1.949,-2.027c-0.924,-0.603 -2.091,-1.143 -3.498,-1.626c-1.45,-0.497 -3.149,-1.077 -5.096,-1.74c-1.599,-0.505 -3.071,-1.084 -4.418,-1.736c-1.376,-0.667 -2.57,-1.485 -3.581,-2.454c-1.023,-0.979 -1.828,-2.153 -2.416,-3.524c-0.584,-1.362 -0.88,-2.993 -0.88,-4.895c-0,-2.205 0.437,-4.128 1.302,-5.771c0.864,-1.643 2.032,-3.015 3.502,-4.118c1.456,-1.092 3.105,-1.917 4.947,-2.474c1.83,-0.553 3.745,-0.831 5.745,-0.831c2.553,0 4.882,0.396 6.988,1.183c2.13,0.796 4.036,2.18 5.714,4.159c0.177,0.208 0.153,0.521 -0.054,0.7l-4.293,3.734c-0.111,0.096 -0.258,0.139 -0.403,0.117c-0.146,-0.022 -0.274,-0.107 -0.351,-0.232Z" style="fill:#9d9c9c;"/><path d="M1396.44,370.028c2.406,3.526 3.278,6.555 3.278,10.449l-0,28.155l-6.462,-0l0,-28.155c0,-3.894 -1.315,-6.92 -3.942,-9.073c-1.887,-1.507 -4.043,-2.422 -6.464,-2.745c-0.649,-0.091 -1.267,-0.136 -1.86,-0.136c-1.652,0 -3.271,0.313 -4.867,0.935c-2.187,0.882 -3.956,2.224 -5.314,4.028c-1.443,2.03 -2.168,4.366 -2.168,6.991l0,28.155l-6.508,-0l0,-28.155c0,-4.218 1.316,-7.895 3.941,-11.019c2.417,-2.954 5.605,-5.006 9.562,-6.158c1.918,-0.559 3.834,-0.84 5.754,-0.84c1.917,0 3.823,0.281 5.714,0.84c4.01,1.241 7.123,3.485 9.336,6.728Z" style="fill:#9d9c9c;fill-rule:nonzero;"/><path d="M1361.68,354.01c0.228,-1.448 0.648,-2.897 1.258,-4.346c0.61,-1.449 1.391,-2.726 2.344,-3.831c0.953,-1.106 2.097,-2.002 3.431,-2.688c1.335,-0.686 2.841,-1.029 4.518,-1.029c1.754,-0 3.412,0.286 4.975,0.858c1.563,0.571 3.107,1.162 4.632,1.772c1.144,0.458 2.154,0.896 3.031,1.316c0.877,0.419 1.925,0.629 3.145,0.629c1.525,-0 2.745,-0.496 3.66,-1.487c0.915,-0.991 1.563,-2.173 1.944,-3.546l5.49,0c-0.229,1.449 -0.61,2.879 -1.144,4.289c-0.534,1.411 -1.22,2.688 -2.059,3.832c-0.838,1.143 -1.887,2.058 -3.145,2.744c-1.258,0.687 -2.726,1.03 -4.403,1.03c-1.601,-0 -3.183,-0.248 -4.746,-0.744c-1.563,-0.495 -3.069,-1.048 -4.518,-1.658c-1.144,-0.458 -2.364,-0.934 -3.66,-1.43c-1.296,-0.495 -2.592,-0.743 -3.888,-0.743c-1.449,-0 -2.612,0.515 -3.489,1.544c-0.876,1.029 -1.505,2.192 -1.887,3.488l-5.489,0Z" style="fill:#fff;"/><path d="M1331.42,362.46c5.634,0.123 10.694,2.389 15.184,6.817c4.512,4.488 6.773,9.547 6.773,15.184l0,24.171l-5.889,-0l-0,-4.159c-0,-3.395 -0.443,-6.243 -1.33,-8.545c-0.913,-2.36 -2.507,-4.796 -4.78,-7.308c-3.841,-3.241 -7.851,-4.868 -12.044,-4.868c-3.216,0 -6.078,0.873 -8.585,2.612c-2.774,1.949 -4.16,4.459 -4.16,7.528c-0,2.864 1.447,5.163 4.336,6.904c2.418,1.445 5.152,2.169 8.193,2.169c3.895,0 7.407,-1.062 10.533,-3.188c0.088,-0.061 0.517,-0.38 1.284,-0.971l1.284,-1.018c1.296,1.475 2.055,3.44 2.259,5.885c-0.204,0.178 -0.58,0.486 -1.109,0.931c-3.215,2.624 -7.392,3.971 -12.528,4.028l-0.399,-0c-4.603,-0 -8.717,-1.02 -12.349,-3.054c-2.125,-1.181 -3.924,-2.817 -5.401,-4.914c-1.624,-2.303 -2.433,-4.574 -2.433,-6.817c-0,-4.663 2.092,-8.604 6.281,-11.821c3.871,-2.98 8.204,-4.47 13.019,-4.47c7.202,-0 13.104,3.54 17.704,10.624c0.178,-1.063 0.266,-1.931 0.266,-2.612c-0,-4.073 -1.371,-7.809 -4.116,-11.201c-3.45,-4.307 -7.805,-6.461 -13.057,-6.461c-3.247,-0 -6.302,0.899 -9.165,2.701c-2.629,1.681 -4.779,3.911 -6.462,6.684l-4.605,-3.854c5.371,-7.316 12.247,-10.977 20.63,-10.977l0.666,0Zm-17.884,14.432l-0.047,0.047l-0,-0.047l0.047,-0Z" style="fill:#9d9c9c;fill-rule:nonzero;"/></g></g><g><g><path d="M537.807,403.028c-4.906,4.722 -10.628,7.078 -17.143,7.078c-6.985,0 -12.885,-2.412 -17.697,-7.225c-4.813,-4.812 -7.222,-10.597 -7.222,-17.331c-0,-6.672 2.409,-12.441 7.222,-17.294c4.812,-4.844 10.712,-7.272 17.697,-7.272c6.5,0 12.443,2.46 17.84,7.41l-4.2,3.734c-4.4,-3.888 -8.943,-5.831 -13.64,-5.831c-5.119,-0 -9.535,1.856 -13.26,5.584c-3.74,3.722 -5.584,8.278 -5.584,13.669c-0,5.422 1.844,9.997 5.584,13.715c3.725,3.7 8.141,5.569 13.26,5.569c4.384,0 8.106,-1.228 11.143,-3.662l0,-14.622l6,-0l0,16.478Z" style="fill:#575756;fill-rule:nonzero;"/><path d="M563.263,393.855l-5.635,0l0,15.722l-6.04,-0l-0,-48.025l13.756,-0c3.99,0.547 7.347,2.162 10.047,4.869c3.128,3.14 4.69,6.89 4.69,11.243c0,4.375 -1.606,8.194 -4.831,11.422c-2.137,2.141 -4.022,3.422 -5.678,3.838l10.781,16.653l-6.969,-0l-10.121,-15.722Zm-5.635,-27.037l0,21.768l5.944,0c2.806,0 5.247,-1.031 7.347,-3.115c2.081,-2.088 3.128,-4.694 3.128,-7.807c-0,-3.096 -1.047,-5.675 -3.128,-7.734c-2.1,-2.066 -4.541,-3.112 -7.347,-3.112l-5.944,-0Z" style="fill:#575756;fill-rule:nonzero;"/><path d="M620.157,361.553l6.034,0l0,33.972c-0.497,3.769 -2.118,6.981 -4.825,9.713c-3.137,3.162 -7.025,4.734 -11.656,4.734c-4.662,-0 -8.597,-1.594 -11.781,-4.794c-3.169,-3.181 -4.763,-6.981 -4.763,-11.353l0,-32.272l6.044,0l0,32.272c0,3.069 1.056,5.647 3.138,7.756c2.09,2.107 4.546,3.144 7.362,3.144c2.813,0 5.253,-1.037 7.341,-3.144c2.065,-2.109 3.106,-4.687 3.106,-7.756l-0,-32.272Z" style="fill:#575756;fill-rule:nonzero;"/><path d="M646.553,393.855l-0,15.722l-6.041,-0l-0,-48.025l13.731,-0c4.003,0.547 7.356,2.162 10.06,4.869c3.125,3.14 4.693,6.89 4.693,11.243c0,4.375 -1.59,8.175 -4.762,11.379c-3.185,3.209 -7.106,4.812 -11.753,4.812l-5.928,0Zm-0,-27.037l-0,21.768l5.928,0c2.809,0 5.259,-1.031 7.343,-3.115c2.088,-2.088 3.138,-4.694 3.138,-7.807c-0,-3.096 -1.05,-5.675 -3.138,-7.734c-2.084,-2.066 -4.534,-3.112 -7.343,-3.112l-5.928,-0Z" style="fill:#575756;fill-rule:nonzero;"/><path d="M722.806,368.152c4.835,4.859 7.26,10.631 7.26,17.334c-0,6.734 -2.425,12.522 -7.26,17.369c-4.847,4.837 -10.765,7.25 -17.737,7.25c-6.963,-0 -12.863,-2.413 -17.703,-7.25c-4.838,-4.847 -7.26,-10.635 -7.26,-17.369c0,-6.703 2.422,-12.475 7.26,-17.334c4.84,-4.835 10.74,-7.269 17.703,-7.269c6.972,-0 12.89,2.434 17.737,7.269m-17.737,-1.982c-5.125,0 -9.541,1.863 -13.275,5.619c-3.741,3.741 -5.597,8.306 -5.597,13.697c-0,5.416 1.856,9.997 5.597,13.738c3.734,3.734 8.15,5.612 13.275,5.612c5.147,0 9.575,-1.878 13.315,-5.612c3.744,-3.741 5.61,-8.322 5.61,-13.738c-0,-5.391 -1.866,-9.956 -5.61,-13.697c-3.74,-3.756 -8.168,-5.619 -13.315,-5.619" style="fill:#575756;fill-rule:nonzero;"/></g><g><path d="M133.647,204.589c15.319,15.312 22.972,33.781 22.972,55.403c-0,21.634 -7.653,40.097 -22.972,55.416c-15.319,15.315 -33.738,22.968 -55.253,22.968c-13.628,0 -28.344,-4.097 -44.15,-12.318l-0,-22.366c18.706,9.409 33.128,14.125 43.244,14.125l0.906,-0c15.897,-0 29.522,-5.659 40.84,-16.984c11.213,-11.313 16.822,-24.925 16.822,-40.841c0,-15.813 -5.609,-29.431 -16.822,-40.834c-11.318,-11.225 -24.943,-16.832 -40.84,-16.832c-15.925,0 -29.531,5.607 -40.856,16.832c-11.307,11.303 -16.96,24.928 -16.96,40.834l0,141.144l-20.578,-0l0,-141.144c0,-21.622 7.653,-40.091 22.972,-55.403c15.319,-15.228 33.787,-22.831 55.422,-22.831c21.515,-0 39.934,7.603 55.253,22.831" style="fill:#575756;fill-rule:nonzero;"/><path d="M205.108,127.465c2.81,2.757 4.2,6.035 4.2,9.847c0,3.7 -1.39,6.935 -4.2,9.672c-2.781,2.763 -6.3,4.141 -10.503,4.141c-4.297,-0 -7.831,-1.378 -10.568,-4.141c-2.763,-2.737 -4.141,-5.972 -4.141,-9.672c-0,-3.812 1.378,-7.09 4.141,-9.847c2.737,-2.75 6.271,-4.121 10.568,-4.121c4.203,-0 7.722,1.371 10.503,4.121m-21.456,54.294l22.081,0l0,156.619l-22.081,-0l0,-156.619Z" style="fill:#575756;fill-rule:nonzero;"/><path d="M256.933,275.314c0,17.128 4.113,28.722 12.316,34.822c6.703,5.116 18.65,7.681 35.897,7.681l11.103,0l-0,20.56l-11.103,-0c-18.741,-0 -33.1,-2.716 -43.107,-8.107c-18.128,-9.503 -27.19,-27.831 -27.19,-54.956l-0,-151.969l22.084,0l0,58.413l48.95,-0l0,20.566l-48.95,-0l0,72.99Z" style="fill:#575756;fill-rule:nonzero;"/><path d="M563.412,338.378l-22.072,-0l0,-95.504c0,-8.906 -2.462,-16.771 -7.359,-23.571c-4.61,-6.21 -10.607,-10.816 -18.022,-13.807c-5.506,-2.218 -11.106,-3.325 -16.819,-3.325c-1.9,0 -3.859,0.153 -5.856,0.457c-8.213,1.109 -15.525,4.259 -21.922,9.468c-8.913,7.303 -13.366,17.569 -13.366,30.778l0,95.504l-21.918,-0l-0,-95.504c-0,-13.209 -4.463,-23.475 -13.372,-30.778c-6.403,-5.112 -13.716,-8.215 -21.928,-9.312c-2.2,-0.306 -4.297,-0.46 -6.31,-0.46c-5.603,0 -11.094,1.06 -16.509,3.172c-7.419,2.991 -13.419,7.544 -18.025,13.663c-4.894,6.887 -7.353,14.809 -7.353,23.715l-0,95.504l-22.075,-0l-0,-95.504c-0,-14.309 4.462,-26.781 13.365,-37.378c8.2,-10.022 19.016,-16.981 32.438,-20.89c6.506,-1.894 13.003,-2.847 19.519,-2.847c6.5,-0 12.965,0.953 19.381,2.847c13.603,4.209 24.162,11.822 31.669,22.822c7.609,-11 18.225,-18.613 31.84,-22.822c6.51,-1.894 12.966,-2.847 19.369,-2.847c6.503,-0 13.012,0.953 19.531,2.847c13.413,3.909 24.219,10.868 32.422,20.89c8.916,10.597 13.372,23.069 13.372,37.378l-0,95.504Z" style="fill:#575756;fill-rule:nonzero;"/><path d="M656.67,181.758c19.113,0.416 36.275,8.103 51.506,23.122c15.307,15.225 22.975,32.387 22.975,51.506l0,81.991l-19.978,-0l0,-14.107c0,-11.515 -1.5,-21.178 -4.509,-28.987c-3.097,-8.003 -8.503,-16.266 -16.216,-24.788c-13.028,-10.993 -26.631,-16.512 -40.853,-16.512c-10.909,-0 -20.619,2.959 -29.122,8.859c-9.409,6.613 -14.112,15.125 -14.112,25.535c-0,9.715 4.909,17.515 14.709,23.422c8.203,4.9 17.475,7.356 27.791,7.356c13.212,-0 25.125,-3.603 35.731,-10.816c0.297,-0.206 1.753,-1.287 4.353,-3.294l4.356,-3.453c4.397,5.003 6.972,11.669 7.663,19.963c-0.691,0.606 -1.966,1.65 -3.763,3.159c-10.903,8.9 -25.072,13.469 -42.493,13.663l-1.357,-0c-15.612,-0 -29.568,-3.46 -41.887,-10.36c-7.21,-4.006 -13.31,-9.556 -18.322,-16.668c-5.506,-7.813 -8.253,-15.516 -8.253,-23.122c-0,-15.819 7.097,-29.188 21.306,-40.1c13.131,-10.11 27.831,-15.163 44.163,-15.163c24.431,0 44.45,12.01 60.053,36.038c0.606,-3.607 0.903,-6.55 0.903,-8.86c-0,-13.815 -4.65,-26.487 -13.963,-37.993c-11.703,-14.613 -26.475,-21.919 -44.29,-21.919c-11.013,-0 -21.378,3.05 -31.088,9.162c-8.919,5.703 -16.212,13.266 -21.922,22.675l-15.618,-13.075c18.218,-24.815 41.543,-37.234 69.978,-37.234l2.259,-0Zm-60.662,48.953l-0.163,0.159l0,-0.159l0.163,0Z" style="fill:#575756;fill-rule:nonzero;"/></g><g><path d="M976.773,210.862l-193.378,-193.372c-21.578,-21.585 -59.303,-20.022 -87.013,-12.144c2.522,1.678 15.363,4.784 17.769,6.759l75.813,60.132l-14.369,-17.632l172.137,139.297c33.741,27.522 38.763,77.194 11.229,110.922l-157.163,192.6l174.141,-170.284c32.356,-32.335 32.722,-84.4 0.834,-116.278" style="fill:#e73743;fill-rule:nonzero;"/><path d="M947.733,193.903l-172.14,-139.3l145.106,178.031c1.706,2.113 3.456,3.863 4.944,6.072l0.531,0.638c24.765,29.419 20.065,84.515 -13.753,112.856c-0.8,0.669 -1.675,1.291 -2.494,1.95l-216.631,174.719c32.659,17.781 74.35,10.419 98.697,-19.431l166.965,-204.613c27.538,-33.728 22.516,-83.4 -11.225,-110.922" style="fill:#f59c24;fill-rule:nonzero;"/><path d="M925.641,238.705l-166.968,-205.093c-28.257,-33.56 -78.347,-37.869 -111.904,-9.61l-21.553,18.141l234.482,158.806c40.184,27.181 51.303,80.947 24.828,120.035l-80.282,118.403l108.257,-87.253c30.253,-25.46 37.618,-72.572 19.89,-103.829c-1.931,-3.409 -4.218,-6.615 -6.75,-9.6" style="fill:#e9e9e9;fill-rule:nonzero;"/></g></g></g></svg>